<svg width="18" height="20" viewBox="0 0 18 20" fill="none" xmlns="http://www.w3.org/2000/svg">
<rect width="18" height="20" fill="#E5E5E5"/>
<g id="Desktop" clip-path="url(#clip0_0_1)">
<rect width="1905" height="5196" transform="translate(-1281 -4887)" fill="url(#paint0_linear_0_1)"/>
<g id="BG">
<rect id="Rectangle 2" x="-1281" y="-4887" width="1905" height="5196" fill="#F9FAFF"/>
</g>
<g id="Footer">
<g id="contacts">
<g id="Address">
<g id="Iconly/Light/Location">
<g id="Location">
<path id="Stroke 1" fill-rule="evenodd" clip-rule="evenodd" d="M11.5 8.50051C11.5 7.11924 10.3808 6 9.00051 6C7.61924 6 6.5 7.11924 6.5 8.50051C6.5 9.88076 7.61924 11 9.00051 11C10.3808 11 11.5 9.88076 11.5 8.50051Z" stroke="#31352B" stroke-width="1.5" stroke-linecap="round" stroke-linejoin="round"/>
<path id="Stroke 3" fill-rule="evenodd" clip-rule="evenodd" d="M8.99951 19C7.80104 19 1.5 13.8984 1.5 8.56329C1.5 4.38664 4.8571 1 8.99951 1C13.1419 1 16.5 4.38664 16.5 8.56329C16.5 13.8984 10.198 19 8.99951 19Z" stroke="#31352B" stroke-width="1.5" stroke-linecap="round" stroke-linejoin="round"/>
</g>
</g>
</g>
</g>
</g>
</g>
<g id="&#208;&#158;&#208;&#177;&#208;&#190;&#208;&#183;&#208;&#189;&#208;&#176;&#209;&#135;&#208;&#181;&#208;&#189;&#208;&#184;&#209;&#143; &#208;&#180;&#208;&#187;&#209;&#143; &#208;&#148;&#208;&#151; (&#208;&#189;&#208;&#181; &#208;&#178;&#208;&#181;&#209;&#128;&#209;&#129;&#209;&#130;&#208;&#176;&#209;&#130;&#209;&#140;)">
</g>
<defs>
<linearGradient id="paint0_linear_0_1" x1="952.5" y1="0" x2="952.5" y2="5196" gradientUnits="userSpaceOnUse">
<stop stop-color="white" stop-opacity="0.26"/>
<stop offset="1" stop-color="white" stop-opacity="0.38"/>
</linearGradient>
<clipPath id="clip0_0_1">
<rect width="1905" height="5196" fill="white" transform="translate(-1281 -4887)"/>
</clipPath>
</defs>
</svg>
